<svg version="1.1" class="svg-wrapper__element" viewBox="0 0 631.445 133.28" enable-background="new 0 0 631.445 133.28" preserveAspectRatio="xMinYMin meet" id="SVG 0" xmlns="http://www.w3.org/2000/svg" xmlns:xlink="http://www.w3.org/1999/xlink">
        <g>
        	<g>
        		<path fill-rule="evenodd" clip-rule="evenodd" fill="#D10019" d="M139.681,94.752h-18.273c-5.948,0.066-10.849-2.949-13.789-7.775
        			h33.657L139.681,94.752L139.681,94.752z M142.871,79.207h-34.074c-5.948,0.064-10.849-2.949-13.789-7.775h49.458L142.871,79.207
        			L142.871,79.207z M173.399,55.885H23.521c-5.955-0.066-10.607,2.949-13.15,7.775h161.433L173.399,55.885L173.399,55.885z
        			 M176.587,40.338H46.843c-5.954-0.064-10.606,2.949-13.149,7.775h141.299L176.587,40.338L176.587,40.338z M205.507,24.791h-93.374
        			c-5.954-0.064-10.606,2.949-13.149,7.775h104.952L205.507,24.791L205.507,24.791z M208.756,9.062h-76.635
        			c-5.954-0.064-10.606,2.949-13.149,7.775h88.189L208.756,9.062L208.756,9.062z M347.108,30.098l2.405,29.5H332.74L347.108,30.098
        			L347.108,30.098z M326.505,9.062c3.619,0,6.385,3.865,4.998,7.025l-34.606,71.053c-1.679,3.543,0.445,7.611,4.734,7.611h22.521
        			c-4.38,0-6.236-4.42-4.664-7.652l6.058-12.451h25.194l1.25,15.34c0.354,2.715,2.544,4.764,5.228,4.764h30.505
        			c-3.149,0-5.099-2.367-5.247-5.246l-6.48-75.701c-0.158-2.562-2.651-4.742-5.22-4.742H326.505L326.505,9.062z M570.123,15.252
        			l0.004-0.004L570.123,15.252L570.123,15.252z M595.757,90.645l3.285-15.996h-5.395c-2.641,0-4.451-1.732-4.982-3.277
        			l-12.51-33.559l28.584-28.75h-37.295c2.732,0,5.086,3.762,2.682,6.186l-18.592,18.699l4.01-18.803
        			c0.539-2.908-1.773-6.082-5.227-6.082h-19.182h-4.898h-6.541c2.518,0,6.021,2.438,5.221,6.189l0,0l-16.014,72.996
        			c-0.584,2.734,1.115,6.504,5.125,6.504h22.338l8.672,0.016c-3.613-0.006-5.807-2.297-5.197-5.99l3.922-18.387l10.818-10.881
        			l11.82,31.703c0.871,2.207,2.686,3.539,4.988,3.561l19.244-0.021C592.91,94.727,594.923,93.354,595.757,90.645L595.757,90.645z
        			 M453.882,94.752c-3.029,0-4.965-2.27-5.246-4.879l-2.982-39.127L427.191,91.73c-1.283,2.291-3.057,3.021-4.754,3.021H402.58
        			c-2.949,0-4.956-2.369-5.231-4.914l-6.256-76.1c-0.559-2.893-2.294-4.451-5.205-4.676h30.419c2.525,0,4.896,1.898,5.246,4.637
        			l2.834,34.473l16.297-36.182c0.566-1.547,2.74-2.928,4.654-2.928h22.604c3.229,0,4.955,2.246,5.176,4.535l2.656,34.838
        			l14.65-32.525l-0.084,0.119c1.605-3.498-1.699-6.967-4.959-6.967h8.127h1.703h12.598c3.453,0,6.389,3.451,4.92,7.119
        			L479.021,91.02c-1.27,2.832-3.027,3.732-5.051,3.732H453.882L453.882,94.752z M259.226,94.746
        			c-3.315,0.006-5.614-3.102-5.088-6.125l6.93-34.107l-15.197,0.008l-6.9,33.629l0.009-0.014c-0.604,2.945,1.005,6.615,5.066,6.615
        			h-6.431h-2.943H212.64c-3.118,0-5.608-3.062-4.948-6.277l15.085-73.541c0.588-2.865-1.505-5.871-5.276-5.871h31.067
        			c4.12,0,5.927,3.436,5.356,6.213l-4.965,24.195h15.167l4.953-24.381c0.597-2.951-2.079-6.051-5.185-6.061l11.201,0.043h19.644
        			c2.982-0.01,5.89,2.465,5.22,6.189l-14.827,72.912c-0.731,3.6,1.826,6.578,5.12,6.578h-6.458h-2.425L259.226,94.746
        			L259.226,94.746z M618.068,11.184c-1.293-1.295-3.08-2.096-5.055-2.096c-1.973,0-3.76,0.801-5.055,2.094
        			c-1.293,1.295-2.094,3.082-2.094,5.055c0,1.975,0.801,3.762,2.094,5.055c1.295,1.295,3.082,2.094,5.055,2.094
        			c1.975,0,3.762-0.799,5.055-2.094c1.293-1.293,2.094-3.08,2.094-5.055C620.162,14.264,619.361,12.477,618.068,11.184
        			L618.068,11.184z M613.013,8.178c2.227,0,4.24,0.902,5.699,2.361c1.459,1.457,2.361,3.473,2.361,5.697
        			c0,2.227-0.902,4.24-2.361,5.699s-3.475,2.361-5.699,2.361s-4.24-0.902-5.699-2.361s-2.361-3.473-2.361-5.699
        			c0-2.225,0.902-4.24,2.361-5.699C608.773,9.08,610.789,8.178,613.013,8.178L613.013,8.178z M609.41,11.576l4.568-0.004
        			c3.57,0,3.248,4.744,0.26,4.871c0.92,0.717,2.01,2.59,3.041,4.156h-1.393c-0.941-1.357-2.082-4.123-3.605-4.062h-1.689v4.119
        			h-1.182V11.576L609.41,11.576z M613.97,12.564c2.15-0.039,2.072,2.963,0,3h-3.379v-3H613.97z"></path>
        	</g>
        	<path fill="#D10019" d="M203.283,109.752h2.625l-3.092,14.992h-2.625L203.283,109.752L203.283,109.752z M228.502,109.752h2.771
        		l4.568,11.045h0.042l2.277-11.045h2.499l-3.092,14.992h-2.771l-4.551-11.023h-0.063l-2.273,11.023h-2.499L228.502,109.752
        		L228.502,109.752z M261.828,109.752h12.137l-0.467,2.268h-4.768l-2.624,12.725h-2.624l2.624-12.725h-4.746L261.828,109.752
        		L261.828,109.752z M295.195,109.752h10.793l-0.468,2.268h-8.168l-0.811,3.926h7.56l-0.441,2.143h-7.56l-0.905,4.389h8.315
        		l-0.468,2.268h-10.939L295.195,109.752L295.195,109.752z M329.127,116.576h4.305c0.841,0,1.519-0.199,2.034-0.598
        		c0.517-0.4,0.857-0.998,1.021-1.797c0.099-0.475,0.108-0.863,0.03-1.164s-0.222-0.537-0.433-0.705
        		c-0.21-0.168-0.467-0.279-0.771-0.336c-0.303-0.055-0.623-0.084-0.959-0.084h-4.263L329.127,116.576L329.127,116.576z
        		 M327.911,109.752h7.16c1.652,0,2.817,0.357,3.496,1.07c0.679,0.715,0.887,1.709,0.624,2.982c-0.147,0.713-0.374,1.305-0.682,1.773
        		c-0.306,0.469-0.629,0.848-0.968,1.135c-0.34,0.287-0.659,0.492-0.958,0.619c-0.299,0.125-0.516,0.209-0.65,0.252l-0.008,0.043
        		c0.218,0.027,0.444,0.098,0.681,0.209c0.235,0.111,0.44,0.291,0.614,0.535c0.173,0.246,0.293,0.564,0.359,0.955
        		c0.066,0.393,0.039,0.883-0.083,1.471c-0.182,0.881-0.28,1.684-0.296,2.404s0.084,1.234,0.301,1.543h-2.813
        		c-0.13-0.322-0.172-0.68-0.126-1.07c0.046-0.393,0.106-0.77,0.182-1.135c0.142-0.686,0.222-1.277,0.24-1.773
        		c0.019-0.498-0.051-0.91-0.207-1.24c-0.155-0.328-0.411-0.57-0.764-0.723c-0.354-0.154-0.831-0.232-1.433-0.232h-3.864
        		l-1.272,6.174h-2.625L327.911,109.752L327.911,109.752z M362.075,109.752h2.772l4.567,11.045h0.042l2.277-11.045h2.499
        		l-3.092,14.992h-2.771l-4.551-11.023h-0.063l-2.273,11.023h-2.498L362.075,109.752L362.075,109.752z M398.052,118.781h4.578
        		l-0.917-6.447h-0.063L398.052,118.781L398.052,118.781z M400.838,109.752h2.793l2.683,14.992H403.5l-0.589-3.969h-5.984
        		l-2.226,3.969h-2.708L400.838,109.752L400.838,109.752z M426.96,109.752h12.137l-0.467,2.268h-4.768l-2.623,12.725h-2.625
        		l2.623-12.725h-4.744L426.96,109.752L426.96,109.752z M460.328,109.752h2.625l-3.092,14.992h-2.625L460.328,109.752
        		L460.328,109.752z M492.109,109.395c1.121,0,2.082,0.211,2.883,0.631c0.803,0.42,1.438,0.986,1.906,1.699
        		c0.469,0.715,0.77,1.547,0.902,2.5c0.133,0.951,0.09,1.959-0.129,3.023c-0.223,1.078-0.596,2.094-1.121,3.045
        		s-1.17,1.785-1.934,2.498c-0.764,0.715-1.631,1.277-2.605,1.691c-0.975,0.412-2.021,0.619-3.141,0.619
        		c-1.121,0-2.082-0.207-2.887-0.619c-0.803-0.414-1.439-0.977-1.908-1.691c-0.469-0.713-0.77-1.547-0.902-2.498
        		s-0.088-1.967,0.135-3.045c0.219-1.064,0.592-2.072,1.117-3.023c0.525-0.953,1.17-1.785,1.932-2.5
        		c0.764-0.713,1.633-1.279,2.609-1.699C489.941,109.605,490.99,109.395,492.109,109.395L492.109,109.395z M491.667,111.537
        		c-0.799,0-1.521,0.16-2.168,0.482c-0.648,0.322-1.209,0.752-1.684,1.291s-0.871,1.152-1.188,1.838s-0.549,1.385-0.695,2.1
        		c-0.148,0.715-0.205,1.414-0.17,2.1c0.033,0.686,0.176,1.299,0.428,1.838c0.254,0.539,0.639,0.969,1.152,1.291
        		s1.17,0.482,1.969,0.482c0.797,0,1.52-0.16,2.168-0.482c0.646-0.322,1.209-0.752,1.684-1.291s0.871-1.152,1.188-1.838
        		s0.547-1.385,0.695-2.1c0.146-0.715,0.203-1.414,0.17-2.1s-0.176-1.299-0.43-1.838c-0.252-0.539-0.637-0.969-1.15-1.291
        		C493.121,111.697,492.464,111.537,491.667,111.537L491.667,111.537z M520.992,109.752h2.771l4.568,11.045h0.043l2.277-11.045h2.498
        		l-3.092,14.992h-2.771l-4.551-11.023h-0.062l-2.273,11.023h-2.498L520.992,109.752L520.992,109.752z M556.97,118.781h4.578
        		l-0.918-6.447h-0.062L556.97,118.781L556.97,118.781z M559.755,109.752h2.793l2.684,14.992h-2.814l-0.588-3.969h-5.984
        		l-2.227,3.969h-2.709L559.755,109.752L559.755,109.752z M589.238,109.752h2.625l-2.625,12.725h7.623l-0.467,2.268h-10.248
        		L589.238,109.752z"></path>
        </g>
    </svg>