<svg width="229" height="59" viewBox="0 0 229 59" fill="none" xmlns="http://www.w3.org/2000/svg">
<g clip-path="url(#clip0_265_1306)">
<rect width="229" height="59" fill="#4085C6"/>
<path d="M81.0586 9.63916H85.8476C88.5172 9.63916 90.5072 9.8316 91.8177 10.2005C93.1283 10.5693 94.2446 11.2268 95.183 12.1249C96.0082 12.9107 96.623 13.8248 97.0274 14.8512C97.4319 15.8775 97.6261 17.0482 97.6261 18.3472C97.6261 19.6462 97.4319 20.833 97.0274 21.8754C96.623 22.9017 96.0082 23.8158 95.183 24.6016C94.2446 25.4997 93.1121 26.1412 91.7854 26.5261C90.4587 26.911 88.4848 27.0874 85.8476 27.0874H81.0586V9.63916ZM85.6049 13.039V23.6875H87.239C89.0996 23.6875 90.5072 23.2385 91.4942 22.3244C92.4649 21.4103 92.9665 20.0953 92.9665 18.3472C92.9665 16.5992 92.4811 15.3002 91.5103 14.4021C90.5396 13.5041 89.1158 13.039 87.2552 13.039H85.6211H85.6049Z" fill="white"/>
<path d="M113.967 9.33398C116.798 9.33398 119.015 10.1358 120.616 11.7395C122.218 13.3432 123.027 15.5563 123.027 18.3949C123.027 21.2334 122.218 23.4305 120.616 25.0342C119.015 26.6379 116.798 27.4397 113.967 27.4397C111.135 27.4397 108.935 26.6379 107.317 25.0342C105.715 23.4305 104.906 21.2174 104.906 18.3949C104.906 15.5724 105.715 13.3432 107.317 11.7395C108.919 10.1358 111.135 9.33398 113.967 9.33398ZM113.967 12.5895C112.575 12.5895 111.507 13.1027 110.747 14.113C109.987 15.1233 109.598 16.5506 109.598 18.3949C109.598 20.2391 109.987 21.6504 110.747 22.6607C111.507 23.671 112.575 24.1842 113.967 24.1842C115.358 24.1842 116.442 23.671 117.202 22.6607C117.963 21.6504 118.351 20.2231 118.351 18.3949C118.351 16.5667 117.963 15.1233 117.202 14.113C116.442 13.1027 115.358 12.5895 113.967 12.5895Z" fill="white"/>
<path d="M131.279 9.63916H135.826V23.6875H143.802V27.0874H131.295V9.63916H131.279Z" fill="white"/>
<path d="M151.502 9.63916H159.041C161.274 9.63916 163.005 10.1363 164.203 11.1146C165.4 12.0928 165.998 13.5041 165.998 15.3323C165.998 17.1605 165.4 18.5717 164.203 19.55C163.005 20.5283 161.29 21.0254 159.041 21.0254H156.048V27.0713H151.502V9.63916ZM156.048 12.8947V17.7699H158.556C159.43 17.7699 160.109 17.5614 160.595 17.1284C161.08 16.7115 161.307 16.1021 161.307 15.3162C161.307 14.5304 161.064 13.9371 160.595 13.5201C160.109 13.1031 159.43 12.8947 158.556 12.8947H156.048Z" fill="white"/>
<path d="M174.023 9.63916H178.57V16.2945H185.268V9.63916H189.814V27.0874H185.268V19.6943H178.57V27.0874H174.023V9.63916Z" fill="white"/>
<path d="M199.07 9.63916H203.617V27.0874H199.07V9.63916Z" fill="white"/>
<path d="M212.869 9.63916H217.933L224.34 21.6027V9.63916H228.644V27.0874H223.58L217.173 15.1238V27.0874H212.869V9.63916Z" fill="white"/>
<path d="M80.6217 35.5381H88.9701V37.0295H82.4014V40.9105H88.6951V42.4019H82.4014V47.1488H89.1157V48.6403H80.6055V35.5541L80.6217 35.5381Z" fill="white"/>
<path d="M103.452 48.4001L105.798 50.9499H103.646L101.688 48.8491C101.494 48.8491 101.348 48.8651 101.235 48.8812C101.138 48.8812 101.041 48.8812 100.944 48.8812C99.0832 48.8812 97.6109 48.2718 96.4946 47.0369C95.3782 45.8021 94.8281 44.1663 94.8281 42.0975C94.8281 40.0288 95.3782 38.3769 96.4946 37.1421C97.6109 35.9073 99.0832 35.2979 100.944 35.2979C102.804 35.2979 104.277 35.9073 105.377 37.1421C106.477 38.3769 107.043 40.0288 107.043 42.0975C107.043 43.621 106.736 44.92 106.121 45.9945C105.506 47.069 104.617 47.8708 103.452 48.384V48.4001ZM100.944 36.7572C99.6495 36.7572 98.614 37.2383 97.8536 38.2005C97.0932 39.1628 96.7049 40.4618 96.7049 42.1136C96.7049 43.7654 97.0932 45.0644 97.8536 46.0266C98.614 46.9888 99.6495 47.4699 100.944 47.4699C102.238 47.4699 103.274 46.9888 104.034 46.0266C104.795 45.0644 105.167 43.7654 105.167 42.1136C105.167 40.4618 104.795 39.1467 104.034 38.2005C103.274 37.2383 102.254 36.7572 100.944 36.7572Z" fill="white"/>
<path d="M113.174 35.5381H114.97V43.4924C114.97 44.8876 115.229 45.898 115.746 46.5234C116.264 47.1328 117.089 47.4536 118.238 47.4536C119.387 47.4536 120.212 47.1488 120.73 46.5234C121.247 45.914 121.506 44.9037 121.506 43.4924V35.5381H123.302V43.7009C123.302 45.4008 122.881 46.6998 122.024 47.5658C121.166 48.4318 119.921 48.8648 118.254 48.8648C116.588 48.8648 115.326 48.4318 114.468 47.5658C113.611 46.6998 113.19 45.4008 113.19 43.7009V35.5381H113.174Z" fill="white"/>
<path d="M130.162 35.5381H131.942V48.6243H130.162V35.5381Z" fill="white"/>
<path d="M139.029 35.538H143.058C144.53 35.538 145.663 35.8747 146.407 36.5323C147.167 37.1898 147.54 38.168 147.54 39.451C147.54 40.7339 147.167 41.7122 146.407 42.3857C145.647 43.0433 144.53 43.38 143.058 43.38H140.809V48.6402H139.029V35.554V35.538ZM140.809 36.9973V41.9207H143.058C143.883 41.9207 144.53 41.7122 144.983 41.2792C145.436 40.8462 145.663 40.2368 145.663 39.451C145.663 38.6652 145.436 38.0558 144.983 37.6388C144.53 37.2058 143.883 36.9973 143.058 36.9973H140.809Z" fill="white"/>
<path d="M153.493 35.5381H161.841V37.0295H155.272V40.9105H161.566V42.4019H155.272V47.1488H161.987V48.6403H153.477V35.5541L153.493 35.5381Z" fill="white"/>
<path d="M168.459 35.5381H171.129L174.494 44.4386L177.875 35.5381H180.545V48.6243H178.797V37.1257L175.4 46.1064H173.604L170.206 37.1257V48.6243H168.475V35.5381H168.459Z" fill="white"/>
<path d="M187.616 35.5381H195.964V37.0295H189.395V40.9105H195.689V42.4019H189.395V47.1488H196.11V48.6403H187.6V35.5541L187.616 35.5381Z" fill="white"/>
<path d="M202.598 35.5381H205.008L210.865 46.4913V35.5381H212.596V48.6243H210.186L204.329 37.671V48.6243H202.598V35.5381Z" fill="white"/>
<path d="M217.836 35.538H229V37.0294H224.308V48.6241H222.512V37.0294H217.82V35.538H217.836Z" fill="white"/>
<path d="M48.9256 30.1983C47.1135 32.5076 44.719 34.432 41.8553 35.731C32.3419 40.0289 21.1136 35.8593 16.7776 26.4296C13.9624 20.3035 14.7552 13.4717 18.2499 8.24365C14.0595 13.584 12.9269 20.993 15.9524 27.5682C20.2885 36.9979 31.5168 41.1515 41.0302 36.8696C44.3631 35.3622 47.0488 33.0208 48.9418 30.1983H48.9256Z" fill="white"/>
<path d="M46.1419 5.8216C52.921 11.9798 54.1506 21.9067 49.5396 29.412C54.8302 21.8265 53.7947 11.3383 46.7244 4.93956C39.0231 -2.06859 27.0505 -1.55541 19.9802 6.09422C19.1389 7.00833 18.3947 7.98659 17.7637 9.01295C18.249 8.30733 18.7991 7.63377 19.3978 6.9923C26.4519 -0.657337 38.4245 -1.18656 46.1419 5.8216Z" fill="white"/>
<path d="M64.5226 30.3419C65.8816 32.9399 66.6582 35.8907 66.6582 39.0179C66.6582 49.3778 58.1803 57.7812 47.7286 57.7812C40.9333 57.7812 34.9956 54.237 31.6465 48.9127C34.8014 54.9105 41.1437 59 48.4405 59C58.8922 59 67.3701 50.5966 67.3701 40.2367C67.3701 36.5963 66.3346 33.2125 64.5226 30.3419Z" fill="white"/>
<path d="M40.9833 22.7405C49.445 19.1642 59.0716 22.1792 64.0386 29.4599C59.2658 21.5377 49.2023 18.1378 40.4008 21.8424C30.7742 25.8997 26.3088 36.9171 30.3859 46.4431C30.8713 47.5817 31.4699 48.6562 32.1495 49.6505C31.7126 48.9128 31.3082 48.143 30.9684 47.3412C26.8751 37.7992 31.3567 26.7818 40.9833 22.7405Z" fill="white"/>
<path d="M22.7485 21.2011C25.6445 21.8105 28.4273 23.0935 30.8542 25.082C38.9276 31.6732 40.0764 43.4925 33.4267 51.4949C29.1069 56.6909 22.5705 58.9842 16.293 58.1503C22.975 59.5455 30.1747 57.3003 34.8181 51.7194C41.4678 43.717 40.319 31.8978 32.2456 25.3066C29.4143 22.9972 26.1137 21.6341 22.7323 21.1851L22.7485 21.2011Z" fill="white"/>
<path d="M1.84583 34.3669C4.45068 25.6267 12.9124 20.1742 21.7462 20.992C12.5403 19.6129 3.49611 25.1296 0.778008 34.2386C-2.18278 44.1815 3.54465 54.6055 13.5757 57.5403C14.773 57.8931 15.9864 58.1176 17.1999 58.2299C16.3424 58.1016 15.5011 57.9091 14.6436 57.6686C4.61247 54.7338 -1.11496 44.2938 1.84583 34.3669Z" fill="white"/>
<path d="M44.1858 9.34922C44.1858 9.34922 44.0887 9.34922 44.0725 9.34922C44.0725 9.38129 44.1049 9.41337 44.1372 9.42941C44.1858 9.46148 44.2181 9.42941 44.2343 9.42941C44.2343 9.39733 44.2343 9.36526 44.1858 9.34922ZM44.1858 9.34922C44.1858 9.34922 44.0887 9.34922 44.0725 9.34922C44.0725 9.38129 44.1049 9.41337 44.1372 9.42941C44.1858 9.46148 44.2181 9.42941 44.2343 9.42941C44.2343 9.39733 44.2343 9.36526 44.1858 9.34922ZM46.5156 11.4501C46.1596 11.0652 45.8037 10.6643 45.6742 9.9907C45.5448 9.31715 45.0109 8.01815 44.1049 7.23234C43.1827 6.44653 40.869 5.38809 39.5423 5.05131C37.1964 4.45795 34.9313 4.90698 34.2356 4.6985C33.5399 4.49002 32.375 3.75232 30.4335 4.0891C29.6892 4.21739 30.4011 4.63435 30.6114 4.89094C30.9027 5.24376 30.5629 5.64468 29.2524 6.23805C27.9581 6.84745 26.5181 7.58515 25.7091 8.17852C24.9002 8.75585 22.6675 11.0972 21.8423 12.6208C21.0172 14.1603 21.1628 15.1546 20.9848 15.2669C20.095 15.8763 18.7359 15.4112 17.5225 16.7102C17.4739 16.7583 17.5225 16.7743 17.5548 16.7743C19.011 16.7743 18.9139 17.3517 20.6127 16.9668C20.6612 16.9668 20.6936 16.9668 20.6936 17.0149C20.6612 18.4743 21.7291 18.5063 21.9556 19.5968C21.9556 19.645 22.0041 19.645 22.0203 19.5968C22.7645 18.5544 21.7776 16.4536 22.1336 15.9565C22.4895 15.4593 24.0103 13.0858 24.9002 12.5566C25.7739 12.0274 26.421 11.4661 28.4111 10.985C30.3526 10.5039 35.6917 10.103 36.8242 10.103C36.8728 10.103 36.889 10.103 36.8566 10.1511C36.355 10.536 36.8081 10.7284 35.6108 11.001C35.5137 11.0331 35.4975 11.0972 35.5623 11.1614C36.9213 12.3 39.3158 11.5623 39.9306 10.6161C39.963 10.568 40.0277 10.552 40.0763 10.568C41.3221 10.8246 43.1018 10.9208 44.0887 11.418C45.108 11.9151 46.645 12.6689 46.8877 12.4764C47.1466 12.2679 46.8877 11.8029 46.5156 11.418V11.4501ZM38.6201 7.56912C38.07 7.53704 38.0053 7.44082 38.1186 7.02386C38.2318 6.59086 37.9244 6.4786 37.4876 6.46257C37.0346 6.43049 36.5816 6.23805 36.7595 6.70312C36.9213 7.15216 37.4067 7.4729 36.5168 7.23234C35.6108 6.97575 33.2972 6.97575 31.7116 7.37667C30.1099 7.7776 27.0682 8.80396 27.0682 8.80396C27.0682 8.80396 25.8709 9.04452 26.9064 8.61152C27.9257 8.17852 32.9412 5.61261 34.996 5.61261C37.0507 5.61261 35.8697 5.4362 37.0507 5.61261C38.2318 5.77298 39.4129 6.46257 39.2835 6.87953C39.1379 7.31253 39.1702 7.60119 38.6363 7.56912H38.6201ZM43.9754 9.58978C43.8298 9.52563 43.7327 9.39733 43.7651 9.30111C43.8136 9.20489 43.9593 9.18885 44.1049 9.253C44.2505 9.31715 44.3476 9.44544 44.3152 9.54166C44.2667 9.62185 44.121 9.65392 43.9754 9.58978ZM44.0725 9.36526C44.0725 9.36526 44.1049 9.42941 44.1372 9.44544C44.1858 9.47752 44.2181 9.44544 44.2343 9.44544C44.2343 9.41337 44.2343 9.38129 44.1858 9.36526C44.1372 9.36526 44.0887 9.36526 44.0725 9.36526ZM44.1858 9.36526C44.1858 9.36526 44.0887 9.36526 44.0725 9.36526C44.0725 9.39733 44.1049 9.42941 44.1372 9.44544C44.1858 9.47752 44.2181 9.44544 44.2343 9.44544C44.2343 9.41337 44.2343 9.38129 44.1858 9.36526ZM44.1858 9.36526C44.1858 9.36526 44.0887 9.36526 44.0725 9.36526C44.0725 9.39733 44.1049 9.42941 44.1372 9.44544C44.1858 9.47752 44.2181 9.44544 44.2343 9.44544C44.2343 9.41337 44.2343 9.38129 44.1858 9.36526Z" fill="white"/>
<path fill-rule="evenodd" clip-rule="evenodd" d="M44.1855 9.34925C44.1855 9.34925 44.2502 9.39736 44.2341 9.42944C44.2341 9.46151 44.1855 9.47755 44.137 9.42944C44.0884 9.42944 44.0723 9.38132 44.0723 9.34925C44.0723 9.31718 44.1208 9.31718 44.1855 9.34925Z" fill="#0057A5"/>
<path fill-rule="evenodd" clip-rule="evenodd" d="M44.1042 9.22098C43.9424 9.15684 43.7644 9.17287 43.732 9.26909C43.6835 9.38135 43.7968 9.52569 43.9585 9.58983C44.1203 9.65398 44.2983 9.63794 44.3307 9.54172C44.363 9.42946 44.266 9.28513 44.1042 9.22098ZM43.9585 9.5738C43.8129 9.50965 43.7159 9.38135 43.7482 9.28513C43.7968 9.18891 43.9424 9.17287 44.088 9.23702C44.2336 9.30117 44.3307 9.42946 44.2983 9.52569C44.2498 9.60587 44.1042 9.63794 43.9585 9.5738Z" fill="#0057A5"/>
<path fill-rule="evenodd" clip-rule="evenodd" d="M44.2341 9.42944C44.2341 9.42944 44.1855 9.47755 44.137 9.42944C44.0884 9.42944 44.0723 9.38132 44.0723 9.34925C44.0723 9.31718 44.1208 9.31718 44.1855 9.34925C44.2341 9.34925 44.2502 9.39736 44.2341 9.42944Z" fill="#4085C6"/>
<path fill-rule="evenodd" clip-rule="evenodd" d="M44.2341 9.42944C44.2341 9.42944 44.1855 9.47755 44.137 9.42944C44.0884 9.42944 44.0723 9.38132 44.0723 9.34925C44.0723 9.31718 44.1208 9.31718 44.1855 9.34925C44.2341 9.34925 44.2502 9.39736 44.2341 9.42944Z" fill="white"/>
<path d="M25.4986 29.8447C24.9809 29.7645 24.447 29.6522 23.9454 29.2032C23.4439 28.7542 22.1981 28.0485 20.9847 27.9683C20.2242 27.9202 18.9946 28.1287 17.8621 28.4174C17.4091 28.5296 16.956 28.6579 16.5839 28.7862C16.3898 28.8504 16.2118 28.9306 16.05 28.9947C13.8173 29.9409 12.2964 31.6729 11.6169 31.9295C10.9374 32.1861 9.56216 32.2983 8.23547 33.7577C7.73392 34.3029 8.55905 34.2067 8.88264 34.2869C9.33565 34.3992 9.3033 34.9123 8.63995 36.1793C7.9766 37.4302 7.29708 38.9056 7.02203 39.8517C6.74699 40.7979 6.40722 43.9893 6.69845 45.7213C7.00585 47.4372 7.73392 48.1268 7.6692 48.3353C7.31326 49.3617 5.97039 49.7947 5.80859 51.5748C5.80859 51.6229 5.84095 51.6389 5.87331 51.6068C7.02203 50.7408 7.31326 51.254 8.39726 49.923C8.4458 49.8748 8.47816 49.8748 8.51052 49.923C9.38419 51.0936 10.2417 50.4682 11.083 51.1899C11.1154 51.238 11.1477 51.2219 11.1315 51.1578C11.083 49.8909 9.01207 48.8164 8.97971 48.223C8.97971 47.6136 8.70467 44.7911 9.07679 43.8449C9.46509 42.8988 9.6107 42.0648 10.8889 40.4772C12.1347 38.9216 16.0985 35.3614 17.0046 34.6558C17.0531 34.6237 17.0693 34.6558 17.0531 34.7039C16.9075 35.3133 17.3929 35.185 16.6001 36.1151C16.5354 36.1953 16.5516 36.2595 16.6486 36.2755C18.4283 36.3557 19.8683 34.319 19.7712 33.1964C19.7712 33.1643 19.7712 33.1483 19.8198 33.1162C19.8198 33.1162 19.8521 33.0841 19.8683 33.0681C20.2566 32.8757 20.6773 32.6351 21.1303 32.4106C21.9716 31.9455 22.8614 31.4644 23.5733 31.3201C24.6897 31.0795 26.3723 30.7748 26.437 30.4541C26.5018 30.1494 26.0002 29.9409 25.4825 29.8447H25.4986ZM16.8751 31.5606C16.4221 31.8653 16.3251 31.8333 16.1309 31.4323C15.9691 31.0314 15.6617 31.1276 15.2896 31.3682C14.9175 31.6248 14.4321 31.737 14.8528 31.9936C15.2734 32.2502 15.8559 32.2021 14.9984 32.5549C14.1409 32.9077 12.3126 34.3029 11.2772 35.6019C10.2579 36.8849 8.49434 39.531 8.49434 39.531C8.49434 39.531 7.68538 40.4611 8.25165 39.4829C8.80174 38.5207 11.1801 33.453 12.798 32.2021C14.4321 30.9512 13.3804 31.5446 14.4321 30.9512C15.4676 30.3739 16.8266 30.1975 16.9884 30.6144C17.134 31.0154 17.3443 31.2399 16.8913 31.5606H16.8751ZM22.5702 29.6683C22.6026 29.7645 22.5055 29.8767 22.3437 29.9088C22.1819 29.9569 22.0363 29.9088 22.0039 29.8126C21.9716 29.7164 22.0687 29.6041 22.2305 29.556C22.3275 29.556 22.4084 29.556 22.4731 29.556C22.5217 29.5881 22.5379 29.6041 22.554 29.6522L22.5702 29.6683ZM22.457 29.6362C22.457 29.6362 22.4084 29.5881 22.3599 29.5881C22.3113 29.5881 22.2952 29.6362 22.2952 29.6683C22.2952 29.7003 22.3437 29.7164 22.3922 29.7003C22.4408 29.7003 22.4731 29.6522 22.457 29.6362Z" fill="white"/>
<path fill-rule="evenodd" clip-rule="evenodd" d="M22.3744 29.7011C22.3744 29.7011 22.2935 29.7011 22.2773 29.6691C22.2773 29.637 22.3097 29.6049 22.3421 29.5889C22.3906 29.5889 22.4391 29.5889 22.4391 29.637C22.4391 29.6691 22.4391 29.6851 22.3744 29.7011Z" fill="#0057A5"/>
<path fill-rule="evenodd" clip-rule="evenodd" d="M22.5857 29.6684C22.6343 29.7647 22.521 29.893 22.3269 29.925C22.1651 29.9731 21.9871 29.925 21.9547 29.7967C21.9224 29.7005 22.0356 29.5722 22.2136 29.5401C22.3107 29.5081 22.3916 29.5401 22.4563 29.5722C22.3916 29.5401 22.3107 29.5401 22.2136 29.5722C22.068 29.6203 21.9709 29.7165 21.9871 29.8288C22.0194 29.925 22.1489 29.9731 22.3269 29.925C22.4725 29.893 22.5857 29.7807 22.5534 29.6845C22.5534 29.6364 22.5048 29.6203 22.4725 29.5883C22.521 29.5883 22.5695 29.6364 22.5857 29.6845V29.6684Z" fill="#0057A5"/>
<path fill-rule="evenodd" clip-rule="evenodd" d="M22.4567 29.637C22.4567 29.637 22.4567 29.6851 22.392 29.7011C22.3435 29.7011 22.3111 29.7011 22.2949 29.6691C22.2949 29.637 22.3273 29.6049 22.3596 29.5889C22.4082 29.5889 22.4567 29.5889 22.4567 29.637Z" fill="#4085C6"/>
<path fill-rule="evenodd" clip-rule="evenodd" d="M22.4567 29.637C22.4567 29.637 22.4567 29.6851 22.392 29.7011C22.3435 29.7011 22.3111 29.7011 22.2949 29.6691C22.2949 29.637 22.3273 29.6049 22.3596 29.5889C22.4082 29.5889 22.4567 29.5889 22.4567 29.637Z" fill="white"/>
<path d="M44.1692 29.6045C44.1692 29.6045 44.0722 29.6045 44.0722 29.6526C44.0722 29.6847 44.0722 29.7007 44.1207 29.7167C44.1692 29.7167 44.2178 29.7167 44.234 29.6847C44.234 29.6526 44.2016 29.6205 44.1692 29.6045ZM44.1692 29.6045C44.1692 29.6045 44.0722 29.6045 44.0722 29.6526C44.0722 29.6847 44.0722 29.7007 44.1207 29.7167C44.1692 29.7167 44.2178 29.7167 44.234 29.6847C44.234 29.6526 44.2016 29.6205 44.1692 29.6045ZM58.8599 48.3517C58.8114 48.1432 59.5233 47.4536 59.8145 45.7377C60.1219 44.0057 59.7821 40.8143 59.5071 39.8681C59.232 38.922 58.5525 37.4466 57.8892 36.1957C57.242 34.9288 57.1935 34.4156 57.6465 34.3033C57.9701 34.2231 58.7952 34.3033 58.2937 33.7741C56.9508 32.3308 55.5756 32.2185 54.9122 31.9459C54.2327 31.6893 52.7118 29.9573 50.4791 29.0111C50.3173 28.947 50.1232 28.8668 49.929 28.8026C49.929 28.8026 49.8967 28.8026 49.8805 28.8026C48.5538 28.3536 46.5638 27.9366 45.5283 27.9848C44.3149 28.0489 43.0691 28.7545 42.5675 29.2196C42.0498 29.6686 41.5159 29.7809 40.9981 29.8611C40.4804 29.9573 39.9627 30.1658 40.0435 30.4705C40.1083 30.7912 41.8071 31.112 42.9073 31.3365C43.878 31.5289 45.1885 32.3628 46.2725 32.9241C46.3696 32.9722 46.4505 33.0204 46.5476 33.0685C46.5476 33.0685 46.5961 33.0685 46.5961 33.1005C46.6447 33.1326 46.677 33.1807 46.6608 33.2288C46.5799 34.3514 48.0199 36.3881 49.7996 36.3079C49.8967 36.3079 49.929 36.2278 49.8481 36.1476C49.0715 35.2174 49.5407 35.3457 49.3951 34.7363C49.3951 34.6882 49.3951 34.6722 49.4436 34.6882C50.3659 35.3938 54.3298 38.938 55.5756 40.5096C56.8375 42.0973 56.9993 42.9312 57.3714 43.8774C57.7597 44.8236 57.5009 47.6461 57.4685 48.2555C57.4685 48.8488 55.3814 49.9073 55.3167 51.1902C55.3167 51.2384 55.349 51.2544 55.3814 51.2223C56.2227 50.5007 57.0802 51.1261 57.9539 49.9554C57.9863 49.9073 58.0186 49.9073 58.051 49.9554C59.1512 51.2865 59.4262 50.7733 60.5911 51.6393C60.6396 51.6874 60.6558 51.6714 60.6558 51.6072C60.494 49.8431 59.1188 49.3941 58.7952 48.3677L58.8599 48.3517ZM44.1045 29.5724C44.1045 29.5724 44.234 29.5724 44.2987 29.5724C44.3634 29.6045 44.4281 29.6205 44.4605 29.6526C44.509 29.7007 44.5252 29.7649 44.509 29.813C44.4766 29.9092 44.331 29.9573 44.1692 29.9092C44.0236 29.8771 43.9266 29.7649 43.9427 29.6686C43.9427 29.6205 43.9913 29.6045 44.0236 29.5724C44.0236 29.5724 44.056 29.5724 44.0722 29.5724H44.1045ZM58.0348 39.5314C58.0348 39.5314 56.2713 36.8853 55.2358 35.6023C54.2165 34.3194 52.3883 32.9081 51.5308 32.5553C50.6733 32.2025 51.2557 32.2345 51.6764 31.994C52.097 31.7374 51.6117 31.6251 51.2395 31.3685C50.8674 31.128 50.5762 31.0318 50.382 31.4327C50.2202 31.8336 50.107 31.8657 49.654 31.561C49.201 31.2403 49.4113 31.0157 49.5569 30.6148C49.7025 30.1979 51.0777 30.3582 52.1132 30.9516C53.1487 31.5289 52.1132 30.9516 53.7311 32.2025C55.3652 33.4534 57.7436 38.521 58.2937 39.4833C58.8437 40.4455 58.0348 39.5314 58.0348 39.5314ZM44.234 29.7007C44.234 29.7007 44.2016 29.6366 44.1692 29.6205C44.1207 29.6205 44.0722 29.6205 44.0722 29.6686C44.0722 29.7007 44.0722 29.7167 44.1207 29.7328C44.1692 29.7328 44.2178 29.7328 44.234 29.7007Z" fill="white"/>
<path fill-rule="evenodd" clip-rule="evenodd" d="M44.1214 29.7003C44.1214 29.7003 44.0567 29.6522 44.0729 29.6361C44.0729 29.604 44.1214 29.588 44.17 29.588C44.2185 29.588 44.2347 29.6361 44.2347 29.6682C44.2347 29.7003 44.1862 29.7163 44.1214 29.7003Z" fill="#0057A5"/>
<path fill-rule="evenodd" clip-rule="evenodd" d="M44.2999 29.5559C44.2028 29.5559 44.1057 29.5559 44.041 29.5559C44.1057 29.5078 44.1866 29.5078 44.2999 29.5239C44.3646 29.5239 44.4293 29.572 44.4617 29.6201C44.4131 29.588 44.3646 29.572 44.2999 29.5399V29.5559Z" fill="#0057A5"/>
<path fill-rule="evenodd" clip-rule="evenodd" d="M44.5422 29.8125C44.5098 29.9248 44.348 29.9729 44.1863 29.9408C44.0083 29.8927 43.895 29.7805 43.9274 29.6842C43.9274 29.6361 43.9759 29.604 44.0568 29.588C44.0083 29.6201 43.9921 29.6361 43.9759 29.6842C43.9436 29.7805 44.0406 29.8927 44.2024 29.9248C44.348 29.9729 44.5098 29.9248 44.5422 29.8286C44.5422 29.7805 44.5422 29.7163 44.4937 29.6682C44.5584 29.7163 44.6069 29.7805 44.5746 29.8286L44.5422 29.8125Z" fill="#0057A5"/>
<path fill-rule="evenodd" clip-rule="evenodd" d="M44.2343 29.6843C44.2343 29.6843 44.1857 29.7324 44.121 29.7164C44.0725 29.7164 44.0563 29.6683 44.0725 29.6522C44.0725 29.6202 44.121 29.6041 44.1695 29.6041C44.2181 29.6041 44.2343 29.6522 44.2343 29.6843Z" fill="#4085C6"/>
<path fill-rule="evenodd" clip-rule="evenodd" d="M44.2343 29.6843C44.2343 29.6843 44.1857 29.7324 44.121 29.7164C44.0725 29.7164 44.0563 29.6683 44.0725 29.6522C44.0725 29.6202 44.121 29.6041 44.1695 29.6041C44.2181 29.6041 44.2343 29.6522 44.2343 29.6843Z" fill="white"/>
</g>
<defs>
<clipPath id="clip0_265_1306">
<rect width="229" height="59" fill="white"/>
</clipPath>
</defs>
</svg>
