<svg width="211" height="60" viewBox="0 0 211 60" fill="none" xmlns="http://www.w3.org/2000/svg">
<g clip-path="url(#clip0_265_334)">
<path d="M81.9609 12.6006H86.1095C88.422 12.6006 90.1459 12.7692 91.2811 13.0923C92.4163 13.4154 93.3834 13.9914 94.1963 14.7781C94.9111 15.4664 95.4436 16.2672 95.794 17.1663C96.1444 18.0653 96.3126 19.0909 96.3126 20.2288C96.3126 21.3667 96.1444 22.4063 95.794 23.3194C95.4436 24.2185 94.9111 25.0192 94.1963 25.7076C93.3834 26.4943 92.4023 27.0562 91.2531 27.3934C90.1038 27.7305 88.3939 27.8851 86.1095 27.8851H81.9609V12.6006ZM85.8992 15.5788V24.9068H87.3148C88.9265 24.9068 90.1459 24.5135 91.0008 23.7127C91.8417 22.912 92.2762 21.76 92.2762 20.2288C92.2762 18.6975 91.8557 17.5596 91.0148 16.7729C90.1739 15.9862 88.9405 15.5788 87.3288 15.5788H85.9132H85.8992Z" fill="#4085C6"/>
<path d="M110.482 12.334C112.935 12.334 114.855 13.0364 116.243 14.4412C117.63 15.846 118.331 17.7847 118.331 20.2712C118.331 22.7578 117.63 24.6824 116.243 26.0872C114.855 27.492 112.935 28.1944 110.482 28.1944C108.03 28.1944 106.124 27.492 104.722 26.0872C103.335 24.6824 102.634 22.7437 102.634 20.2712C102.634 17.7987 103.335 15.846 104.722 14.4412C106.11 13.0364 108.03 12.334 110.482 12.334ZM110.482 15.1858C109.277 15.1858 108.352 15.6353 107.693 16.5204C107.035 17.4054 106.698 18.6557 106.698 20.2712C106.698 21.8868 107.035 23.123 107.693 24.0081C108.352 24.8931 109.277 25.3426 110.482 25.3426C111.688 25.3426 112.627 24.8931 113.285 24.0081C113.944 23.123 114.28 21.8727 114.28 20.2712C114.28 18.6697 113.944 17.4054 113.285 16.5204C112.627 15.6353 111.688 15.1858 110.482 15.1858Z" fill="#4085C6"/>
<path d="M125.479 12.6006H129.417V24.9068H136.326V27.8851H125.493V12.6006H125.479Z" fill="#4085C6"/>
<path d="M142.983 12.6009H149.515C151.449 12.6009 152.948 13.0364 153.985 13.8933C155.023 14.7503 155.541 15.9865 155.541 17.588C155.541 19.1895 155.023 20.4258 153.985 21.2827C152.948 22.1397 151.463 22.5751 149.515 22.5751H146.922V27.8713H142.983V12.5869V12.6009ZM146.922 15.4527V19.7234H149.094C149.851 19.7234 150.44 19.5407 150.86 19.1614C151.28 18.7962 151.477 18.2623 151.477 17.574C151.477 16.8856 151.266 16.3658 150.86 16.0006C150.44 15.6353 149.851 15.4527 149.094 15.4527H146.922Z" fill="#4085C6"/>
<path d="M162.507 12.6006H166.445V18.4306H172.247V12.6006H176.186V27.8851H172.247V21.4088H166.445V27.8851H162.507V12.6006Z" fill="#4085C6"/>
<path d="M184.188 12.6006H188.127V27.8851H184.188V12.6006Z" fill="#4085C6"/>
<path d="M196.158 12.6006H200.544L206.095 23.0806V12.6006H209.823V27.8851H205.436L199.886 17.4051V27.8851H196.158V12.6006Z" fill="#4085C6"/>
<path d="M81.6948 36.3284H90.7627V38.8711H85.0585V41.3014H90.4263V43.8442H85.0585V46.8364H90.9589V49.3792H81.6948V36.3143V36.3284Z" fill="#4085C6"/>
<path d="M100.209 49.632H99.9428C97.7984 49.632 96.1306 49.042 94.9253 47.8479C93.72 46.6538 93.1313 44.9961 93.1313 42.8748C93.1313 40.7536 93.72 39.0959 94.9113 37.9018C96.1026 36.6936 97.7424 36.1036 99.8307 36.1036C101.919 36.1036 103.587 36.6936 104.764 37.8877C105.941 39.0818 106.53 40.7395 106.53 42.8889C106.53 44.364 106.222 45.6283 105.591 46.6819C104.96 47.7355 104.063 48.5363 102.886 49.0842L105.521 52.0202H102.311L100.181 49.6461L100.209 49.632ZM99.8587 38.5339C98.8356 38.5339 98.0367 38.9132 97.4761 39.6718C96.9155 40.4305 96.6352 41.4981 96.6352 42.8748C96.6352 44.2516 96.9155 45.3473 97.4621 46.0919C98.0087 46.8365 98.8075 47.2017 99.8587 47.2017C100.91 47.2017 101.681 46.8224 102.255 46.0638C102.816 45.3052 103.096 44.2375 103.096 42.8748C103.096 41.5122 102.816 40.4305 102.255 39.6718C101.695 38.9132 100.896 38.5339 99.8587 38.5339Z" fill="#4085C6"/>
<path d="M109.095 36.3281H112.458V44.153C112.458 45.2347 112.627 46.0074 112.991 46.471C113.341 46.9345 113.916 47.1734 114.715 47.1734C115.514 47.1734 116.102 46.9345 116.453 46.471C116.803 46.0074 116.985 45.2347 116.985 44.153V36.3281H120.349V44.153C120.349 46.0074 119.886 47.3841 118.961 48.2832C118.036 49.1823 116.621 49.6458 114.729 49.6458C112.837 49.6458 111.435 49.1963 110.51 48.2832C109.585 47.37 109.123 46.0074 109.123 44.153V36.3281H109.095Z" fill="#4085C6"/>
<path d="M123.615 36.3281H126.978V49.393H123.615V36.3281Z" fill="#4085C6"/>
<path d="M130.272 36.3281H135.85C137.504 36.3281 138.779 36.6934 139.662 37.4379C140.545 38.1825 140.994 39.2221 140.994 40.5988C140.994 41.9755 140.545 43.0291 139.662 43.7596C138.779 44.5042 137.504 44.8695 135.85 44.8695H133.636V49.407H130.272V36.3422V36.3281ZM133.636 38.7725V42.4251H135.5C136.144 42.4251 136.649 42.2705 137.013 41.9474C137.364 41.6243 137.546 41.1748 137.546 40.5988C137.546 40.0228 137.364 39.5592 137.013 39.2502C136.663 38.9411 136.158 38.7725 135.5 38.7725H133.636Z" fill="#4085C6"/>
<path d="M143.376 36.3284H152.444V38.8711H146.74V41.3014H152.107V43.8442H146.74V46.8364H152.64V49.3792H143.376V36.3143V36.3284Z" fill="#4085C6"/>
<path d="M155.583 36.3281H159.858L162.829 43.3241L165.815 36.3281H170.089V49.393H166.908V39.8402L163.909 46.8783H161.778L158.779 39.8402V49.393H155.598V36.3281H155.583Z" fill="#4085C6"/>
<path d="M173.369 36.3284H182.437V38.8711H176.732V41.3014H182.1V43.8442H176.732V46.8364H182.633V49.3792H173.369V36.3143V36.3284Z" fill="#4085C6"/>
<path d="M185.59 36.3281H189.346L194.083 45.2909V36.3281H197.265V49.393H193.508L188.771 40.4302V49.393H185.59V36.3281Z" fill="#4085C6"/>
<path d="M198.989 36.3281H211V38.8709H206.683V49.393H203.32V38.8709H198.989V36.3281Z" fill="#4085C6"/>
<path d="M49.1938 30.7094C47.3719 33.0555 44.9612 35.0082 42.0741 36.3287C32.5017 40.6977 21.2194 36.4692 16.8606 26.8743C14.0295 20.6509 14.8144 13.697 18.3322 8.3868C14.1136 13.8094 12.9784 21.3393 16.0197 28.0403C20.3784 37.6352 31.6607 41.8637 41.2332 37.4947C44.5828 35.9635 47.2878 33.5753 49.1798 30.7094H49.1938Z" fill="#4085C6"/>
<path d="M46.4047 5.91477C53.2302 12.1803 54.4635 22.2669 49.8245 29.8951C55.1362 22.1686 54.0991 11.506 46.9934 5.00164C39.2429 -2.10677 27.2038 -1.57294 20.0981 6.19574C19.2431 7.12292 18.5003 8.12034 17.8696 9.15991C18.3602 8.44345 18.9068 7.75509 19.5094 7.09482C26.6011 -0.67385 38.6403 -1.20768 46.4047 5.90072V5.91477Z" fill="#4085C6"/>
<path d="M64.8766 30.8499C66.2501 33.491 67.035 36.4833 67.035 39.6722C67.035 50.2084 58.5137 58.7497 48.0022 58.7497C41.1768 58.7497 35.1923 55.1534 31.8286 49.7307C35.0101 55.8277 41.373 59.986 48.703 59.986C59.2145 59.986 67.7358 51.4446 67.7358 40.9085C67.7358 37.2138 66.6846 33.7579 64.8766 30.8359V30.8499Z" fill="#4085C6"/>
<path d="M41.2051 23.1234C49.7123 19.4989 59.3969 22.5615 64.4003 29.9508C59.5931 21.9012 49.4881 18.4313 40.6304 22.2103C30.9599 26.3404 26.447 37.5369 30.5675 47.2302C31.058 48.3962 31.6607 49.4779 32.3334 50.4893C31.8849 49.7448 31.4925 48.9581 31.1421 48.1433C27.0216 38.45 31.5345 27.2395 41.2051 23.1234Z" fill="#4085C6"/>
<path d="M22.8729 21.55C25.774 22.1681 28.5771 23.4746 31.0298 25.4975C39.1446 32.1985 40.2938 44.2238 33.6086 52.3578C29.2638 57.6399 22.6907 59.9719 16.3838 59.129C23.0971 60.5479 30.357 58.2721 35.0241 52.5966C41.7094 44.4627 40.5601 32.4374 32.4453 25.7364C29.6002 23.3903 26.2786 21.9995 22.8729 21.55Z" fill="#4085C6"/>
<path d="M1.86396 34.938C4.48482 26.0454 12.9921 20.5104 21.8778 21.3393C12.6277 19.9344 3.51777 25.5537 0.798804 34.7975C-2.17243 44.8982 3.57383 55.5186 13.6648 58.4968C14.8701 58.848 16.0895 59.0869 17.3088 59.1993C16.4539 59.0728 15.5989 58.8761 14.744 58.6233C4.63899 55.6591 -1.12129 45.0527 1.86396 34.938Z" fill="#4085C6"/>
<path d="M44.4282 9.51099C44.4282 9.51099 44.3301 9.49694 44.3161 9.52504C44.3161 9.55313 44.3441 9.59528 44.3862 9.60932C44.4282 9.63742 44.4703 9.60932 44.4843 9.59528C44.4983 9.56718 44.4703 9.52503 44.4282 9.51099ZM44.4282 9.51099C44.4282 9.51099 44.3301 9.49694 44.3161 9.52504C44.3161 9.55313 44.3441 9.59528 44.3862 9.60932C44.4282 9.63742 44.4703 9.60932 44.4843 9.59528C44.4983 9.56718 44.4703 9.52503 44.4282 9.51099ZM46.7688 11.6463C46.4044 11.253 46.054 10.8456 45.9278 10.1572C45.8017 9.46884 45.2551 8.14831 44.3441 7.34756C43.4191 6.54681 41.0926 5.47914 39.7611 5.12794C37.4066 4.52386 35.1221 4.98746 34.4213 4.77673C33.7205 4.56601 32.5573 3.82145 30.5951 4.15861C29.8523 4.28504 30.5671 4.70649 30.7773 4.97341C31.0717 5.33866 30.7213 5.73201 29.4038 6.35013C28.1004 6.96826 26.6568 7.72686 25.844 8.31689C25.0311 8.90691 22.7886 11.2811 21.9617 12.8404C21.1348 14.4138 21.275 15.4112 21.1068 15.5377C20.2098 16.1558 18.8503 15.6782 17.617 16.9987C17.5749 17.0408 17.603 17.0689 17.645 17.0689C19.1026 17.0689 19.0185 17.659 20.7144 17.2656C20.7564 17.2656 20.7985 17.2797 20.7985 17.3218C20.7704 18.8109 21.8356 18.839 22.0598 19.9488C22.0598 19.991 22.1019 20.005 22.1299 19.9629C22.8727 18.9093 21.8916 16.7599 22.242 16.2682C22.5924 15.7625 24.1341 13.3462 25.0311 12.8123C25.914 12.2785 26.5587 11.7025 28.5629 11.2108C30.511 10.7191 35.8789 10.3117 37.0281 10.3117C37.0842 10.3117 37.0982 10.3117 37.0562 10.3679C36.5516 10.7613 37.0141 10.958 35.8088 11.2249C35.7107 11.253 35.6967 11.3232 35.7668 11.3934C37.1263 12.5595 39.5369 11.8008 40.1536 10.8456C40.1816 10.8034 40.2517 10.7753 40.2937 10.7894C41.5411 11.0422 43.335 11.1546 44.3301 11.6463C45.3532 12.1521 46.8949 12.9247 47.1472 12.728C47.3995 12.5173 47.1332 12.0397 46.7688 11.6463ZM38.8361 7.69876C38.2895 7.67067 38.2194 7.57233 38.3316 7.15088C38.4437 6.71539 38.1354 6.603 37.7009 6.57491C37.2524 6.54681 36.7899 6.35013 36.9721 6.81373C37.1403 7.26327 37.6308 7.60043 36.7338 7.34756C35.8228 7.09469 33.4963 7.09469 31.8986 7.50209C30.2868 7.90949 27.2315 8.94906 27.2315 8.94906C27.2315 8.94906 26.0262 9.18788 27.0633 8.75238C28.0864 8.31689 33.1319 5.70392 35.1921 5.70392C37.2524 5.70392 36.0751 5.52129 37.2524 5.70392C38.4437 5.87249 39.635 6.57491 39.4948 6.99635C39.3547 7.43185 39.3827 7.72686 38.8361 7.69876ZM44.218 9.74981C44.0638 9.67957 43.9797 9.55313 44.0078 9.45479C44.0498 9.35646 44.204 9.34241 44.3441 9.3986C44.4983 9.46884 44.5824 9.59528 44.5544 9.69361C44.5123 9.7779 44.3581 9.806 44.218 9.74981ZM44.3161 9.52504C44.3161 9.52504 44.3441 9.59528 44.3862 9.60932C44.4282 9.63742 44.4703 9.60932 44.4843 9.59528C44.4983 9.56718 44.4703 9.52503 44.4282 9.51099C44.3722 9.49694 44.3301 9.49694 44.3161 9.52504ZM44.4282 9.51099C44.4282 9.51099 44.3301 9.49694 44.3161 9.52504C44.3161 9.55313 44.3441 9.59528 44.3862 9.60932C44.4282 9.63742 44.4703 9.60932 44.4843 9.59528C44.4983 9.56718 44.4703 9.52503 44.4282 9.51099ZM44.4282 9.51099C44.4282 9.51099 44.3301 9.49694 44.3161 9.52504C44.3161 9.55313 44.3441 9.59528 44.3862 9.60932C44.4282 9.63742 44.4703 9.60932 44.4843 9.59528C44.4983 9.56718 44.4703 9.52503 44.4282 9.51099Z" fill="#4085C6"/>
<path fill-rule="evenodd" clip-rule="evenodd" d="M44.428 9.51099C44.428 9.51099 44.4981 9.56718 44.4841 9.59528C44.4701 9.62338 44.428 9.63742 44.386 9.60933C44.3439 9.59528 44.3159 9.55313 44.3159 9.52504C44.3299 9.49694 44.372 9.49694 44.428 9.51099Z" fill="#0057A5"/>
<path fill-rule="evenodd" clip-rule="evenodd" d="M44.358 9.38456C44.1898 9.31431 44.0217 9.32836 43.9796 9.44075C43.9376 9.55313 44.0497 9.69362 44.2039 9.76386C44.372 9.8341 44.5402 9.806 44.5823 9.70766C44.6103 9.59528 44.5122 9.4548 44.358 9.38456ZM44.2179 9.74981C44.0637 9.67957 43.9796 9.55313 44.0076 9.4548C44.0497 9.35646 44.2039 9.34241 44.344 9.3986C44.4982 9.46885 44.5823 9.59528 44.5542 9.69362C44.5122 9.77791 44.358 9.806 44.2179 9.74981Z" fill="#0057A5"/>
<path fill-rule="evenodd" clip-rule="evenodd" d="M44.4841 9.59528C44.4841 9.59528 44.428 9.63742 44.386 9.60933C44.3439 9.59528 44.3159 9.55313 44.3159 9.52504C44.3299 9.49694 44.372 9.49694 44.428 9.51099C44.4701 9.52504 44.4981 9.56718 44.4841 9.59528Z" fill="white"/>
<path fill-rule="evenodd" clip-rule="evenodd" d="M44.4841 9.59528C44.4841 9.59528 44.428 9.63742 44.386 9.60933C44.3439 9.59528 44.3159 9.55313 44.3159 9.52504C44.3299 9.49694 44.372 9.49694 44.428 9.51099C44.4701 9.52504 44.4981 9.56718 44.4841 9.59528Z" fill="#4085C6"/>
<path d="M25.6342 30.3582C25.1156 30.2739 24.583 30.1616 24.0644 29.698C23.5599 29.2344 22.3125 28.5179 21.0932 28.4477C20.3364 28.4055 19.089 28.6162 17.9538 28.9113C17.4913 29.0236 17.0428 29.1501 16.6644 29.2906C16.4682 29.3608 16.286 29.431 16.1318 29.5013C13.8894 30.4706 12.3617 32.2266 11.6749 32.4936C10.9882 32.7605 9.61469 32.8729 8.26923 34.3479C7.76468 34.8958 8.59158 34.7975 8.91393 34.8818C9.37643 34.9941 9.33439 35.5139 8.67567 36.8064C8.00293 38.0848 7.3302 39.5739 7.0499 40.5432C6.76959 41.5125 6.43322 44.7577 6.72754 46.5137C7.03588 48.2557 7.76467 48.9581 7.70861 49.1688C7.35823 50.2084 5.99875 50.6579 5.83057 52.4561C5.83057 52.5123 5.8586 52.5263 5.90064 52.4842C7.06391 51.5992 7.34422 52.1189 8.43741 50.7703C8.47945 50.7282 8.5215 50.7282 8.54953 50.7703C9.43249 51.9644 10.2874 51.3322 11.1424 52.0627C11.1704 52.1049 11.2124 52.0908 11.1984 52.0347C11.1564 50.7422 9.0681 49.6605 9.04006 49.0564C9.02605 48.4383 8.75976 45.5725 9.13817 44.6031C9.5306 43.6338 9.67075 42.7909 10.9602 41.1754C12.2075 39.5879 16.2019 35.9775 17.1129 35.2611C17.1549 35.233 17.1829 35.2611 17.1689 35.3032C17.0148 35.9213 17.5053 35.7949 16.7204 36.7361C16.6504 36.8204 16.6784 36.8907 16.7765 36.9047C18.5705 36.989 20.014 34.9099 19.9159 33.772C19.9159 33.7439 19.9299 33.7158 19.958 33.6877C19.972 33.6877 19.986 33.6596 20 33.6455C20.3924 33.4488 20.8129 33.21 21.2614 32.9712C22.1023 32.4936 22.9993 32.0159 23.7141 31.8614C24.8353 31.6226 26.5311 31.2995 26.6012 30.9763C26.6713 30.6673 26.1667 30.4566 25.6342 30.3582ZM16.9587 32.1002C16.4962 32.4093 16.3981 32.3812 16.2159 31.9738C16.0477 31.5664 15.7394 31.6647 15.375 31.9035C14.9966 32.1564 14.52 32.2828 14.9405 32.5357C15.361 32.7886 15.9496 32.7464 15.0807 33.1117C14.2117 33.4629 12.3757 34.8958 11.3386 36.2023C10.3155 37.5088 8.53552 40.192 8.53552 40.192C8.53552 40.192 7.72263 41.1332 8.28324 40.1498C8.82984 39.1665 11.2264 34.0108 12.8522 32.7464C14.492 31.4821 13.4409 32.0721 14.492 31.4821C15.5291 30.8921 16.9026 30.7235 17.0568 31.1449C17.211 31.5523 17.4072 31.7771 16.9587 32.1002ZM22.6909 30.1756C22.719 30.2739 22.6209 30.3863 22.4667 30.4144C22.2985 30.4566 22.1584 30.4144 22.1303 30.3161C22.1023 30.2177 22.2004 30.1054 22.3546 30.0632C22.4527 30.0492 22.5368 30.0492 22.6069 30.0632C22.6489 30.0913 22.6769 30.1194 22.6909 30.1616V30.1756ZM22.5788 30.1475C22.5788 30.1475 22.5228 30.1054 22.4807 30.1054C22.4387 30.1194 22.4106 30.1616 22.4106 30.1896C22.4247 30.2177 22.4667 30.2318 22.5087 30.2177C22.5648 30.2037 22.5928 30.1756 22.5788 30.1475Z" fill="#4085C6"/>
<path fill-rule="evenodd" clip-rule="evenodd" d="M22.5088 30.2178C22.5088 30.2178 22.4247 30.2178 22.4106 30.1897C22.4106 30.1616 22.4387 30.1194 22.4807 30.1054C22.5228 30.1054 22.5788 30.1194 22.5788 30.1475C22.5928 30.1756 22.5648 30.2037 22.5088 30.2178Z" fill="#0057A5"/>
<path fill-rule="evenodd" clip-rule="evenodd" d="M22.7189 30.1751C22.761 30.2735 22.6489 30.3999 22.4667 30.4421C22.2985 30.4842 22.1303 30.428 22.0883 30.3156C22.0602 30.2173 22.1724 30.0909 22.3546 30.0487C22.4527 30.0206 22.5367 30.0347 22.6068 30.0768C22.5367 30.0487 22.4527 30.0487 22.3546 30.0768C22.2004 30.119 22.1023 30.2313 22.1303 30.3297C22.1583 30.428 22.2985 30.4702 22.4667 30.428C22.6208 30.3999 22.7189 30.2875 22.6909 30.1892C22.6769 30.1471 22.6489 30.119 22.6068 30.0909C22.6629 30.1049 22.7049 30.133 22.7189 30.1892V30.1751Z" fill="#0057A5"/>
<path fill-rule="evenodd" clip-rule="evenodd" d="M22.5788 30.1475C22.5788 30.1475 22.5648 30.2037 22.5088 30.2178C22.4667 30.2318 22.4247 30.2178 22.4106 30.1897C22.4106 30.1616 22.4387 30.1194 22.4807 30.1054C22.5228 30.1054 22.5788 30.1194 22.5788 30.1475Z" fill="white"/>
<path fill-rule="evenodd" clip-rule="evenodd" d="M22.5788 30.1475C22.5788 30.1475 22.5648 30.2037 22.5088 30.2178C22.4667 30.2318 22.4247 30.2178 22.4106 30.1897C22.4106 30.1616 22.4387 30.1194 22.4807 30.1054C22.5228 30.1054 22.5788 30.1194 22.5788 30.1475Z" fill="#4085C6"/>
<path d="M44.4142 30.1057C44.4142 30.1057 44.3161 30.1198 44.3161 30.1479C44.3021 30.176 44.3301 30.2041 44.3721 30.2181C44.4282 30.2322 44.4702 30.2181 44.4843 30.19C44.4843 30.1619 44.4562 30.1198 44.4142 30.1057ZM44.4142 30.1057C44.4142 30.1057 44.3161 30.1198 44.3161 30.1479C44.3021 30.176 44.3301 30.2041 44.3721 30.2181C44.4282 30.2322 44.4702 30.2181 44.4843 30.19C44.4843 30.1619 44.4562 30.1198 44.4142 30.1057ZM59.1863 49.1692C59.1302 48.9585 59.859 48.256 60.1533 46.5141C60.4617 44.758 60.1253 41.5129 59.845 40.5436C59.5647 39.5742 58.8779 38.0851 58.2192 36.8067C57.5605 35.5143 57.5185 34.9945 57.981 34.8821C58.3033 34.7978 59.1302 34.8962 58.6257 34.3483C57.2802 32.8732 55.8927 32.7608 55.22 32.4939C54.5332 32.227 53.0055 30.471 50.7631 29.5017C50.5949 29.4314 50.4127 29.3612 50.2165 29.2909C50.2025 29.2909 50.1885 29.2909 50.1745 29.2909C48.843 28.8273 46.8388 28.4059 45.8017 28.4621C44.5824 28.5323 43.335 29.2488 42.8304 29.7124C42.3119 30.176 41.7793 30.2884 41.2467 30.3726C40.7282 30.471 40.2096 30.6817 40.2937 30.9908C40.3638 31.3139 42.0596 31.637 43.1808 31.8758C44.1619 32.0725 45.4793 32.9154 46.5585 33.4913C46.6566 33.5335 46.7407 33.5897 46.8388 33.6318C46.8528 33.6459 46.8809 33.6459 46.8949 33.6599C46.9369 33.688 46.979 33.7442 46.965 33.7864C46.8809 34.9243 48.3244 37.0034 50.1184 36.9191C50.2165 36.9051 50.2445 36.8348 50.1745 36.7505C49.3896 35.8093 49.8661 35.9357 49.726 35.3176C49.712 35.2614 49.726 35.2474 49.768 35.2755C50.693 35.9919 54.6874 39.6023 55.9347 41.1898C57.2101 42.8053 57.3643 43.6482 57.7427 44.6175C58.1351 45.5869 57.8688 48.4527 57.8408 49.0708C57.8268 49.6749 55.7385 50.7566 55.6825 52.0491C55.6825 52.1053 55.7105 52.1193 55.7525 52.0772C56.5935 51.3467 57.4624 51.9788 58.3454 50.7847C58.3734 50.7426 58.4154 50.7426 58.4435 50.7847C59.5507 52.1334 59.831 51.6136 60.9943 52.4986C61.0363 52.5408 61.0643 52.5267 61.0643 52.4705C60.8961 50.6723 59.5226 50.2228 59.1863 49.1832V49.1692ZM44.3441 30.0636C44.3441 30.0636 44.4702 30.0495 44.5403 30.0636C44.6104 30.0917 44.6665 30.1198 44.7085 30.1479C44.7505 30.2041 44.7786 30.2603 44.7646 30.3164C44.7365 30.4148 44.5824 30.4569 44.4282 30.4148C44.274 30.3867 44.1759 30.2743 44.2039 30.176C44.218 30.1338 44.246 30.1057 44.288 30.0776C44.3021 30.0776 44.3161 30.0776 44.3441 30.0776V30.0636ZM58.3594 40.1924C58.3594 40.1924 56.5794 37.5091 55.5423 36.2027C54.5192 34.8962 52.6832 33.4633 51.8142 33.112C50.9453 32.7468 51.5339 32.7889 51.9544 32.5361C52.3749 32.2832 51.8843 32.1568 51.5199 31.9039C51.1415 31.6651 50.8472 31.5667 50.665 31.9741C50.4968 32.3815 50.3847 32.4096 49.9362 32.1006C49.4877 31.7775 49.6839 31.5527 49.8381 31.1453C49.9923 30.7238 51.3658 30.8924 52.4029 31.4825C53.44 32.0725 52.4029 31.4825 54.0287 32.7468C55.6684 34.0111 58.0651 39.1668 58.6117 40.1502C59.1723 41.1336 58.3594 40.1924 58.3594 40.1924ZM44.4843 30.19C44.4843 30.19 44.4562 30.1198 44.4142 30.1057C44.3581 30.1057 44.3161 30.1198 44.3161 30.1479C44.3021 30.176 44.3301 30.2041 44.3721 30.2181C44.4282 30.2322 44.4702 30.2181 44.4843 30.19Z" fill="#4085C6"/>
<path fill-rule="evenodd" clip-rule="evenodd" d="M44.3724 30.2178C44.3724 30.2178 44.3023 30.1756 44.3163 30.1475C44.3163 30.1194 44.3584 30.1054 44.4144 30.1054C44.4565 30.1194 44.4845 30.1616 44.4845 30.1897C44.4705 30.2178 44.4284 30.2318 44.3724 30.2178Z" fill="#0057A5"/>
<path fill-rule="evenodd" clip-rule="evenodd" d="M44.5404 30.0632C44.4423 30.0492 44.3441 30.0492 44.2881 30.0632C44.3582 30.0211 44.4423 30.007 44.5404 30.0351C44.6104 30.0492 44.6665 30.0913 44.7085 30.1335C44.6665 30.1054 44.6104 30.0773 44.5404 30.0492V30.0632Z" fill="#0057A5"/>
<path fill-rule="evenodd" clip-rule="evenodd" d="M44.7927 30.3161C44.7646 30.4285 44.5965 30.4847 44.4283 30.4425C44.2461 30.4004 44.134 30.2739 44.162 30.1756C44.176 30.1194 44.2181 30.0913 44.2881 30.0773C44.2461 30.1054 44.2181 30.1335 44.204 30.1756C44.176 30.2739 44.2741 30.3863 44.4283 30.4144C44.5825 30.4566 44.7366 30.4144 44.7646 30.3161C44.7787 30.2599 44.7506 30.2037 44.7086 30.1475C44.7787 30.1897 44.8207 30.2599 44.7927 30.3161Z" fill="#0057A5"/>
<path fill-rule="evenodd" clip-rule="evenodd" d="M44.4843 30.1897C44.4843 30.1897 44.4283 30.2318 44.3722 30.2178C44.3302 30.2037 44.3021 30.1756 44.3161 30.1475C44.3161 30.1194 44.3582 30.1054 44.4143 30.1054C44.4563 30.1194 44.4843 30.1616 44.4843 30.1897Z" fill="white"/>
<path fill-rule="evenodd" clip-rule="evenodd" d="M44.4843 30.1897C44.4843 30.1897 44.4283 30.2318 44.3722 30.2178C44.3302 30.2037 44.3021 30.1756 44.3161 30.1475C44.3161 30.1194 44.3582 30.1054 44.4143 30.1054C44.4563 30.1194 44.4843 30.1616 44.4843 30.1897Z" fill="#4085C6"/>
</g>
<defs>
<clipPath id="clip0_265_334">
<rect width="211" height="60" fill="white"/>
</clipPath>
</defs>
</svg>
