<svg width="22" height="23" viewBox="0 0 22 23" fill="none" xmlns="http://www.w3.org/2000/svg">
<g clip-path="url(#clip0_265_207)">
<path d="M7.55859 16.4846C8.19487 17.2954 8.77396 18.1495 9.29167 19.0408C9.7337 19.879 9.91795 20.4473 10.241 21.4572C10.4391 22.0151 10.6182 22.1817 11.0031 22.1817C11.4227 22.1817 11.613 21.8984 11.76 21.4602C12.0654 20.5065 12.305 19.7786 12.683 19.0909C13.4248 17.7631 14.3465 16.5832 15.2521 15.4492C15.4974 15.1282 17.0825 13.2585 17.7962 11.7832C17.7962 11.7832 18.6733 10.1626 18.6733 7.89921C18.6733 5.78206 17.8083 4.31367 17.8083 4.31367L15.3179 4.98061L13.8054 8.96406L13.4313 9.51335L13.3564 9.61283L13.257 9.73739L13.0822 9.93635L12.8327 10.1859L11.4858 11.2832L8.1187 13.2273L7.55859 16.4846Z" fill="#34A853"/>
<path d="M4.08301 11.5102C4.90478 13.3873 6.48951 15.0374 7.56171 16.4854L13.2566 9.73953C13.2566 9.73953 12.4543 10.7888 10.9989 10.7888C9.37784 10.7888 8.06819 9.49429 8.06819 7.86199C8.06819 6.74264 8.74161 5.97363 8.74161 5.97363L4.8758 7.0095L4.08301 11.5102Z" fill="#FBBC04"/>
<path d="M13.3206 0.534378C15.2119 1.14422 16.8308 2.42446 17.8101 4.31238L13.2587 9.7361C13.2587 9.7361 13.9321 8.95325 13.9321 7.84082C13.9321 6.17046 12.5256 4.92266 11.0062 4.92266C9.56938 4.92266 8.74414 5.9702 8.74414 5.9702V2.55335L13.3206 0.534378Z" fill="#4285F4"/>
<path d="M5.12646 2.93093C6.25619 1.57933 8.24402 0.1875 10.9844 0.1875C12.314 0.1875 13.3157 0.536538 13.3157 0.536538L8.73968 5.97323H5.49756L5.12646 2.93093Z" fill="#1A73E8"/>
<path d="M4.08318 11.5104C4.08318 11.5104 3.32715 10.0299 3.32715 7.8851C3.32715 5.85791 4.11519 4.08591 5.1264 2.93066L8.74221 5.97339L4.08318 11.5104Z" fill="#EA4335"/>
</g>
<defs>
<clipPath id="clip0_265_207">
<rect width="22" height="22" fill="white" transform="translate(0 0.1875)"/>
</clipPath>
</defs>
</svg>
