<?xml version="1.0" encoding="UTF-8"?>
<svg id="Layer_2" data-name="Layer 2" xmlns="http://www.w3.org/2000/svg" viewBox="0 0 465.34 154.94">
  <defs>
    <style>
      .cls-1 {
        fill: #fefefe;
      }

      .cls-1, .cls-2, .cls-3 {
        stroke-width: 0px;
      }

      .cls-2 {
        fill: #252122;
      }

      .cls-3 {
        fill: #f0b63b;
      }
    </style>
  </defs>
  <g id="Layer_1-2" data-name="Layer 1">
    <g>
      <path class="cls-2" d="m154.25,78.72c-21.19,21.11-42.32,42.27-63.47,63.42-3.97,3.98-7.99,7.91-11.9,11.95-1.03,1.06-1.6,1.19-2.74.05-18.79-18.87-37.64-37.69-56.47-56.52-6.31-6.3-12.6-12.63-18.94-18.89-.94-.93-.98-1.42-.02-2.35,3.06-2.94,6-5.99,9-8.99.35-.35.74-.66,1.07-.95.78.12,1.11.7,1.54,1.13,11.71,11.7,23.41,23.4,35.12,35.1,9.63,9.63,19.26,19.25,28.85,28.92.95.96,1.46.91,2.37,0,17.54-17.59,35.1-35.15,52.69-52.68,1.07-1.07,1.15-1.67,0-2.75-2.86-2.69-5.64-5.48-8.34-8.35-.97-1.03-1.48-.82-2.35.05-13.37,13.42-26.77,26.81-40.15,40.22-3,3-2.97,3.03-6,0-17.18-17.16-34.35-34.33-51.56-51.47-1.02-1.01-.92-1.53.06-2.49C39.09,38.08,55.14,22.01,71.21,5.94c1.81-1.81,3.65-3.58,5.41-5.43.63-.66,1.02-.68,1.66-.04,3.26,3.27,6.53,6.54,9.84,9.76.87.85.25,1.24-.3,1.79-6.89,6.88-13.78,13.77-20.66,20.66-7.28,7.29-14.54,14.6-21.85,21.85-.73.72-.64,1.05.03,1.72,10.44,10.4,20.87,20.81,31.25,31.28,1.05,1.05,1.47.27,2.05-.3,7.91-7.89,15.81-15.79,23.71-23.69,6.13-6.13,12.28-12.25,18.37-18.44.96-.98,1.47-.81,2.34.07,10.34,10.4,20.69,20.77,31.09,31.11.91.91,1.18,1.38.11,2.45Z"/>
      <path class="cls-2" d="m255.02,63.19c-2.47,10.47-4.88,20.96-7.33,31.44-3.39,14.53-6.79,29.06-10.19,43.59-.14.6-.36,1.22-.37,1.83-.02,1.28-.71,1.53-1.82,1.52-4.57-.03-9.13-.02-13.7-.02h0c-4.5,0-9.01-.04-13.51.02-1.05.02-1.52-.28-1.77-1.35-2.47-10.91-4.97-21.82-7.51-32.72-1.97-8.48-4.01-16.94-5.99-25.42-1.47-6.28-2.87-12.59-4.36-18.87-.26-1.07-.12-1.43,1.06-1.42,4.88.05,9.76.06,14.64,0,1.1-.02,1.33.52,1.52,1.4,1.3,6.21,2.64,12.41,3.96,18.62,1.28,6.01,2.57,12.02,3.83,18.04,1.66,7.99,3.3,15.98,4.92,23.97.66,3.25,1.91,4.04,5.31,3.37.75-.15.61-.61.71-1.06,1.21-5.65,2.43-11.31,3.62-16.97,1.96-9.28,3.9-18.58,5.87-27.87,1.3-6.13,2.64-12.26,3.89-18.4.18-.88.45-1.09,1.29-1.08,4.94.03,9.89.04,14.83,0,1.12-.01,1.38.3,1.12,1.41Z"/>
      <path class="cls-2" d="m464.13,98.41c-1.65-8.01-6.28-13.5-14.47-15.63-6.25-1.62-12.53-1.88-18.87-.76-7.57,1.34-13.26,5.18-16.5,12.3-2.42,5.32-3.24,10.94-3.03,17.27-.3,4.93.14,10.32,1.92,15.52,2.58,7.56,7.53,12.69,15.44,14.69,4.51,1.14,9.06,1.32,13.69.85,9.54-.96,16.1-5.99,19.6-14.74,3.81-9.54,4.28-19.51,2.22-29.51Zm-15.32,16.08c0,.52-.02,1.04-.05,1.55-.01.25-.02.5-.04.74,0,.02,0,.04,0,.06-.01.25-.03.49-.05.74,0,.02,0,.04,0,.05-.02.23-.04.47-.07.69-.02.12-.03.24-.05.36-.02.14-.03.29-.06.43-.02.13-.04.26-.06.38-.02.13-.04.26-.06.38-.04.24-.09.49-.14.73,0,.02,0,.03,0,.04-.03.12-.05.24-.08.36-.03.13-.06.25-.09.38-.03.12-.07.25-.1.38-.02.08-.05.17-.07.25-.12.42-.27.83-.42,1.25-.03.08-.06.15-.09.22-.05.12-.09.24-.14.35-.08.18-.16.36-.24.54-2,4.25-6.68,5.34-10.4,4.9-5.13-.6-7.65-3.81-8.58-8.66-1.19-6.2-1.14-12.38.3-18.52,1-4.25,4.52-6.98,9.08-7.17,5.17-.21,8.5,1.87,10.13,6.14.23.59.41,1.19.57,1.79.05.2.1.4.15.6.06.27.12.55.17.82.03.18.06.35.09.53,0,0,0,.02,0,.03.03.2.06.39.08.59,0,.06.02.12.02.18.02.18.04.36.06.54.03.32.06.63.08.95.04.61.07,1.22.08,1.83,0,.21,0,.41.01.62.01.86,0,1.73,0,2.6,0,.39,0,.78,0,1.17,0,.39,0,.78-.01,1.17Z"/>
      <path class="cls-2" d="m323.86,86.63c-.08,3.56-.07,7.13,0,10.69.02,1.09-.33,1.34-1.37,1.33-3.87-.06-7.76.02-11.63-.05-1.1-.02-1.5.2-1.49,1.41.06,7.69.02,15.39.05,23.08,0,1.29.08,2.6.82,3.78.57.9,1.41,1.64,2.34,1.68,3.47.13,6.96.05,10.6.05.21,3.64.41,7.42.67,11.2.08,1.17-.31,1.53-1.49,1.75-4.97.9-9.92,1.72-15.03,1.15-7.83-.87-11.64-4.28-13.14-12.13-.42-2.2-.61-4.42-.6-6.67.03-7.88-.02-15.76.03-23.64.01-1.27-.25-1.78-1.61-1.67-1.43.13-2.88-.02-4.31.05-.84.04-1.05-.27-1.04-1.07.04-3.81.05-7.63,0-11.44,0-.86.32-1.07,1.1-1.05,1.44.04,2.88-.07,4.31.03,1.28.1,1.57-.41,1.55-1.6-.06-4.38.04-8.76-.03-13.13-.02-1.2.35-1.45,1.47-1.43,4.19.06,8.38.09,12.57-.01,1.39-.03,1.82.33,1.8,1.74-.08,4.37.04,8.76-.06,13.13-.03,1.16.31,1.32,1.32,1.31,3.88-.05,7.76.04,11.64-.05,1.27-.03,1.55.37,1.53,1.57Z"/>
      <path class="cls-2" d="m374.91,139.98c0,1.15-.2,1.61-1.5,1.59-4.25-.09-8.5-.09-12.75.02-1.4.03-1.6-.47-1.59-1.71.04-12.75.03-25.5.03-38.25s.02-25.38-.03-38.07c0-1.35.26-1.82,1.72-1.79,4.18.11,8.38.07,12.56.01,1.15-.02,1.57.22,1.57,1.51-.05,25.57-.04,51.13-.01,76.7Z"/>
      <path class="cls-2" d="m403.44,139.72c0,1.38-.23,1.93-1.79,1.88-4.19-.13-8.38-.09-12.57-.03-1.1.02-1.47-.21-1.47-1.42.04-25.64.04-51.27,0-76.9,0-1.1.19-1.51,1.4-1.49,4.31.08,8.63.09,12.94,0,1.34-.03,1.48.49,1.48,1.62-.03,12.82-.02,25.64-.02,38.45s-.02,25.26.03,37.89Z"/>
      <path class="cls-2" d="m279.19,140.11c0,1.15-.27,1.47-1.44,1.45-4.25-.07-8.51-.07-12.76.03-1.36.03-1.63-.41-1.63-1.68.06-8.82.03-17.64.03-26.46s.03-17.76-.03-26.65c-.01-1.4.32-1.79,1.74-1.75,4.19.11,8.38.09,12.57,0,1.28-.03,1.52.39,1.52,1.58-.04,17.83-.04,35.65,0,53.47Z"/>
      <path class="cls-2" d="m346.8,140.11c0,1.16-.32,1.49-1.46,1.48-4.25-.06-8.5-.08-12.75,0-1.33.02-1.66-.41-1.65-1.7.06-8.88.03-17.75.03-26.63s.03-17.63-.03-26.44c-.01-1.41.36-1.79,1.76-1.76,4.12.09,8.25.08,12.37.02,1.21-.02,1.73.19,1.73,1.6-.05,17.81-.04,35.63,0,53.44Z"/>
      <path class="cls-3" d="m109.64,34.58c-4.21,4.14-8.32,8.39-12.48,12.58-3.73,3.74-7.49,7.46-11.23,11.19-2.25,2.25-4.49,4.5-6.72,6.76-1.18,1.19-2.13,1.47-3.48-.03-2.64-2.91-5.49-5.63-8.32-8.36-.96-.92-1.13-1.55-.09-2.59,5.02-4.97,9.95-10.02,14.92-15.02,5.33-5.35,10.69-10.69,16.03-16.03.44-.44.78-.99,1.54-.99.9.13,1.25,1,1.77,1.55,2.58,2.69,5.23,5.31,7.96,7.84,1.07.99,1.35,1.88.11,3.1Z"/>
      <path class="cls-2" d="m279.19,76.44c.03,1.02-.21,1.42-1.32,1.4-4.37-.06-8.75-.05-13.12,0-1.06.01-1.39-.32-1.37-1.39.06-4.43.06-8.87,0-13.31-.02-1.06.27-1.38,1.35-1.36,4.37.06,8.75.06,13.12,0,1.07-.02,1.38.3,1.34,1.35-.08,2.25-.02,4.5-.02,6.75s-.05,4.37.02,6.56Z"/>
      <path class="cls-2" d="m346.78,63.13c-.02,1.61-.02,3.21-.02,4.82v1.93c0,1.28-.01,2.57-.01,3.85,0,.96,0,1.93.03,2.89.02.87-.25,1.22-1.16,1.21-4.49-.03-8.99-.03-13.48,0-.87,0-1.19-.26-1.18-1.18.04-4.56.04-9.11,0-13.67,0-.87.24-1.2,1.16-1.19,4.49.04,8.99.06,13.48,0,1.1-.01,1.2.49,1.19,1.35Z"/>
      <path class="cls-1" d="m448.81,108.93c-.02-.61-.04-1.22-.08-1.83.05.61.07,1.22.08,1.83Z"/>
      <path class="cls-1" d="m448.83,112.15c0,.39,0,.78,0,1.17,0-.39,0-.78,0-1.17,0-.87,0-1.73,0-2.6.02.86.01,1.73,0,2.6Z"/>
    </g>
  </g>
</svg>